<?xml version="1.0" encoding="iso-8859-1"?>
<!-- Generator: Adobe Illustrator 19.0.0, SVG Export Plug-In . SVG Version: 6.00 Build 0)  -->
<svg version="1.1" id="Capa_1" xmlns="http://www.w3.org/2000/svg" xmlns:xlink="http://www.w3.org/1999/xlink" x="0px" y="0px"
	 viewBox="0 0 512 512" style="enable-background:new 0 0 512 512;" xml:space="preserve">
<g>
	<rect x="7.5" y="7.5" style="fill:#E82934;" width="497" height="497"/>
	<rect x="474.5" y="7.5" style="fill:#C7232C;" width="30" height="497"/>
</g>
<g>
	<path style="fill:#FFFFFF;" d="M427.226,134.02c0,0-14.332,18.063-47.798,32.146c0,0,11.185-26.743-64.767-27.886L255.998,453
		l-58.663-314.72c-75.952,1.143-64.767,27.886-64.767,27.886C99.103,152.082,84.77,134.02,84.77,134.02
		c77.836-26.182,150.702-19.275,150.702-19.275l20.526,26.362l20.527-26.362C276.525,114.744,349.39,107.838,427.226,134.02z"/>
	<path style="fill:#FFFFFF;" d="M448,86.667l-11.466,25.04c0,0-61.202-26.354-180.529-26.354S75.466,111.708,75.466,111.708
		L64,86.667C156.52,49.778,355.48,49.778,448,86.667z"/>
</g>
<path d="M373.743,171.537c2.14,2.342,5.669,2.771,8.594,1.541c34.836-14.66,50.13-33.598,50.764-34.396
	c1.519-1.914,2.01-4.448,1.316-6.791c-0.693-2.343-2.484-4.201-4.8-4.979c-78.447-26.388-150.761-19.924-153.8-19.634
	c-2.057,0.195-3.941,1.229-5.21,2.859l-14.609,18.762l-14.609-18.762c-1.269-1.63-3.153-2.664-5.21-2.859
	c-3.039-0.289-75.354-6.754-153.8,19.634c-2.316,0.778-4.107,2.637-4.8,4.979c-0.694,2.343-0.203,4.877,1.316,6.791
	c0.634,0.799,15.928,19.736,50.764,34.396c2.924,1.229,6.454,0.8,8.594-1.541c2.105-2.304,2.704-5.362,1.307-8.128
	c-0.126-0.562-0.299-2.196,1.219-4.282c2.625-3.604,12.717-11.808,50.355-13.187l57.491,308.434
	c0.662,3.551,3.761,6.126,7.373,6.126s6.711-2.575,7.373-6.126l57.491-308.434c37.638,1.379,47.73,9.582,50.355,13.187
	c1.518,2.086,1.346,3.721,1.219,4.282C371.04,166.175,371.638,169.233,373.743,171.537z M314.774,130.781
	c-3.685-0.029-6.816,2.532-7.486,6.125l-51.29,275.164l-51.29-275.164c-0.663-3.556-3.766-6.126-7.372-6.126
	c-0.038,0-0.076,0-0.114,0.001c-37.937,0.57-60.586,7.272-69.241,20.488c-0.812,1.24-1.449,2.464-1.944,3.655
	c-12.385-6.167-21.294-12.635-27.077-17.523c61.908-18.319,118.853-16.266,132.644-15.418l18.478,23.73
	c1.421,1.825,3.604,2.893,5.917,2.893c2.313,0,4.497-1.067,5.917-2.893l18.479-23.733c13.784-0.857,70.638-2.937,132.641,15.42
	c-5.785,4.891-14.698,11.359-27.077,17.524c-0.495-1.191-1.132-2.415-1.944-3.655C375.36,138.054,352.711,131.352,314.774,130.781z"
	/>
<path d="M383.451,76.94c4.071,0.745,7.979-1.963,8.72-6.038s-1.962-7.979-6.038-8.72c-50.581-9.192-111.695-12.623-172.085-9.664
	C151.806,55.57,97.531,65.223,61.222,79.7c-1.908,0.761-3.42,2.271-4.185,4.178c-0.764,1.907-0.712,4.044,0.143,5.911l11.466,25.041
	c1.694,3.698,6.036,5.366,9.777,3.771c0.602-0.258,61.533-25.747,177.581-25.747s176.969,25.489,177.563,25.743
	c0.966,0.416,1.972,0.613,2.963,0.613c2.847,0,5.564-1.631,6.823-4.38l11.466-25.041c0.855-1.867,0.907-4.004,0.143-5.911
	c-0.764-1.907-2.276-3.417-4.185-4.178c-9.729-3.879-20.837-7.45-33.017-10.616c-4.008-1.042-8.104,1.363-9.146,5.372
	s1.363,8.104,5.372,9.146c8.574,2.229,16.563,4.658,23.848,7.251l-5.195,11.345c-19.211-6.809-78.243-24.344-176.635-24.344
	c-98.398,0-157.436,17.536-176.645,24.345l-5.194-11.344C146.86,65.039,282.881,58.665,383.451,76.94z"/>
<path d="M504.5,480.5c-4.142,0-7.5,3.357-7.5,7.5v9H15V71.667c0-4.143-3.358-7.5-7.5-7.5S0,67.524,0,71.667V504.5
	c0,4.143,3.358,7.5,7.5,7.5h497c4.142,0,7.5-3.357,7.5-7.5V488C512,483.857,508.642,480.5,504.5,480.5z"/>
<path d="M504.5,0H7.5C3.358,0,0,3.357,0,7.5v31.833c0,4.143,3.358,7.5,7.5,7.5s7.5-3.357,7.5-7.5V15h482v441.667
	c0,4.143,3.358,7.5,7.5,7.5s7.5-3.357,7.5-7.5V7.5C512,3.357,508.642,0,504.5,0z"/>
<g>
</g>
<g>
</g>
<g>
</g>
<g>
</g>
<g>
</g>
<g>
</g>
<g>
</g>
<g>
</g>
<g>
</g>
<g>
</g>
<g>
</g>
<g>
</g>
<g>
</g>
<g>
</g>
<g>
</g>
</svg>
